<?xml version="1.0" encoding="UTF-8"?>
<svg id="_레이어_2" data-name="레이어_2" xmlns="http://www.w3.org/2000/svg" viewBox="0 0 143 82">
  <defs>
    <style>
      .cls-1 {
        fill: #767676;
      }

      .cls-2 {
        fill: none;
      }
    </style>
  </defs>
  <g id="_레이어_1-2" data-name="레이어_1">
    <g>
      <rect class="cls-2" width="143" height="82"/>
      <g>
        <path class="cls-1" d="M34.66,33.25h3.3c.56,0,.98.17,1.25.52.28.35.42.72.42,1.11,0,.41-.14.79-.42,1.12-.28.34-.7.51-1.25.51h-3.3v4.58c0,.63-.08,1.12-.25,1.47-.17.35-.39.6-.66.75-.29.17-.61.27-.94.29-.34.02-.69.03-1.05.03h-1.81c-.12,0-.21-.03-.27-.09-.06-.06-.09-.15-.09-.27v-13.36c0-.61-.16-1.06-.49-1.36s-.67-.55-1.03-.75c-.39-.17-.74-.34-1.05-.49s-.48-.4-.48-.75c0-.27.11-.43.33-.49.21-.06.49-.09.84-.09h6.61c.1,0,.18.03.25.09.07.06.11.15.11.27v6.91Z"/>
        <path class="cls-1" d="M64.77,41.09c0,.63-.08,1.12-.25,1.47-.17.35-.39.6-.66.75-.29.17-.61.27-.94.29-.34.02-.69.03-1.05.03h-1.81c-.12,0-.21-.03-.27-.09s-.09-.15-.09-.27v-13.36c0-.61-.16-1.06-.49-1.36s-.67-.55-1.03-.75c-.39-.17-.74-.34-1.05-.49-.31-.16-.48-.4-.48-.75,0-.27.11-.43.33-.49.22-.07.49-.09.84-.09h6.61c.1,0,.18.03.25.09.07.06.11.15.11.27v14.75Z"/>
        <path class="cls-1" d="M21.7,36.24c.88-.97,1.68-1.96,2.38-2.98.74-1.09,1.31-2.07,1.72-2.94.15-.34.11-.71-.09-1.12s-.61-.61-1.21-.61h-13.79c-.29,0-.5.06-.62.16-.12.11-.18.27-.18.49s.13.48.4.76c.26.29.59.57.98.84.36.26.76.49,1.2.67.43.18.82.27,1.16.27h5.26c-.29.71-.83,1.62-1.62,2.74-.79,1.12-1.62,2.16-2.48,3.11-.63.71-1.22,1.32-1.78,1.85s-1.07,1.02-1.56,1.45c-.51.43-.98.84-1.39,1.2-.42.36-.82.69-1.18.98-.53.43-.72.84-.58,1.21.15.38.69.39,1.63.06,1.65-.58,3.29-1.39,4.92-2.44,1.62-1.03,3.24-2.27,4.85-3.71.98-.93,1.67-1.64,1.99-1.98l-.02-.02Z"/>
        <path class="cls-1" d="M23.51,35.89l.71,1.5c.16.34.4.65.71.89l1.19.93c.07.06.07.17,0,.23l-1.19.93c-.3.24-.54.54-.71.89l-.71,1.5c-.05.11-.21.11-.26,0l-.71-1.5c-.16-.34-.4-.65-.71-.89l-1.19-.93c-.07-.06-.07-.17,0-.23l1.19-.93c.3-.24.54-.54.71-.89l.71-1.5c.05-.11.21-.11.26,0Z"/>
        <path class="cls-1" d="M52.04,36.24c.88-.97,1.68-1.96,2.38-2.98.74-1.09,1.31-2.07,1.72-2.94.15-.34.11-.71-.09-1.12-.2-.41-.61-.61-1.21-.61h-13.79c-.29,0-.5.06-.62.16-.12.11-.18.27-.18.49s.13.48.4.76c.26.29.59.57.98.84.36.26.76.49,1.2.67.43.18.82.27,1.16.27h5.26c-.29.71-.83,1.62-1.62,2.74-.79,1.12-1.62,2.16-2.48,3.11-.63.71-1.22,1.32-1.78,1.85-.56.53-1.07,1.02-1.56,1.45-.51.43-.98.84-1.39,1.2-.42.36-.82.69-1.18.98-.53.43-.72.84-.58,1.21.15.38.69.39,1.63.06,1.65-.58,3.29-1.39,4.92-2.44,1.62-1.03,3.24-2.27,4.85-3.71.98-.93,1.67-1.64,1.99-1.98l-.02-.02Z"/>
        <path class="cls-1" d="M53.85,35.89l.71,1.5c.16.34.4.65.71.89l1.19.93c.07.06.07.17,0,.23l-1.19.93c-.3.24-.54.54-.71.89l-.71,1.5c-.05.11-.21.11-.26,0l-.71-1.5c-.16-.34-.4-.65-.71-.89l-1.19-.93c-.07-.06-.07-.17,0-.23l1.19-.93c.3-.24.54-.54.71-.89l.71-1.5c.05-.11.21-.11.26,0Z"/>
        <path class="cls-1" d="M98.53,35.61l.84,1.78c.16.34.4.65.71.89l1.33,1.04-1.33,1.04c-.3.24-.54.54-.71.89l-.84,1.78-.84-1.78c-.16-.34-.4-.65-.71-.89l-1.33-1.04,1.33-1.04c.3-.24.54-.54.71-.89l.84-1.78Z"/>
        <path class="cls-1" d="M82.55,38.95l1.02,2.14c.16.34.4.65.71.89l1.68,1.32c.07.06.07.17,0,.23l-1.68,1.32c-.3.24-.54.54-.71.89l-1.02,2.14c-.05.11-.21.11-.26,0l-1.02-2.14c-.16-.34-.4-.65-.71-.89l-1.68-1.32c-.07-.06-.07-.17,0-.23l1.68-1.32c.3-.24.54-.54.71-.89l1.02-2.14c.05-.11.21-.11.26,0Z"/>
        <path class="cls-1" d="M14.06,46.47c.25.17.54.35.85.54.2.11.39.22.56.34.46.32.71.86.71,1.42v8.4c0,.32.26.58.58.58h16.82c.27,0,.52-.19.57-.45.05-.23.07-.49.07-.79v-11.43c0-.12-.03-.21-.11-.27-.07-.06-.16-.09-.25-.09h-6.35c-.2,0-.39.03-.58.09s-.29.21-.29.45c0,.27.12.48.38.66.25.17.54.35.85.54.21.11.42.25.61.38.43.3.66.8.66,1.33,0,.32-.26.58-.58.58h-6.72c-.32,0-.58-.26-.58-.58v-2.54c0-.12-.03-.21-.11-.27s-.16-.09-.25-.09h-6.36c-.2,0-.39.03-.58.09-.2.06-.29.21-.29.45,0,.27.13.48.38.66h0ZM21.85,51.88h6.72c.32,0,.58.26.58.58v1.82c0,.32-.26.58-.58.58h-6.72c-.32,0-.58-.26-.58-.58v-1.82c0-.32.26-.58.58-.58Z"/>
        <path class="cls-1" d="M44.03,46.47c.25.17.54.35.85.54.21.11.39.23.58.36.44.31.69.84.69,1.38v8.49c0,.29.24.52.52.52h17.02c.25,0,.47-.17.52-.41.05-.24.08-.52.08-.83v-11.43c0-.12-.03-.21-.11-.27s-.16-.09-.25-.09h-6.35c-.2,0-.39.03-.58.09s-.29.21-.29.45c0,.27.12.48.38.66.25.17.54.35.85.54.22.12.43.25.63.39.41.3.64.78.64,1.29v.08c0,.29-.24.52-.52.52h-6.93c-.29,0-.52-.24-.52-.52v-2.59c0-.12-.03-.21-.11-.27s-.16-.09-.25-.09h-6.35c-.2,0-.39.03-.58.09s-.29.21-.29.45c0,.27.13.48.38.66h0ZM51.76,51.88h6.93c.29,0,.52.24.52.52v1.92c0,.29-.24.52-.52.52h-6.93c-.29,0-.52-.24-.52-.52v-1.92c0-.29.24-.52.52-.52Z"/>
        <path class="cls-1" d="M80.15,38.1c.66-1.4,1.19-2.74,1.6-4.01.41-1.27.71-2.41.87-3.43.1-.31.07-.66-.09-1.03-.16-.38-.47-.57-.93-.57h-6.97c-.29,0-.52.05-.71.15-.18.1-.27.25-.27.48,0,.27.15.48.43.66.29.17.59.35.91.54.34.2.64.44.89.75.25.3.34.71.27,1.21-.2,1.16-.51,2.53-.94,4.1-.43,1.57-1.02,3.05-1.74,4.43-.87,1.67-1.8,3.24-2.78,4.7-.98,1.47-1.87,2.68-2.67,3.65-.43.58-.5.98-.18,1.2s.82.11,1.53-.33c1.84-1.09,3.58-2.54,5.21-4.35,1.61-1.79,2.98-3.59,4.13-5.42.14-.26,1.44-2.71,1.44-2.71h0Z"/>
        <path class="cls-1" d="M96.72,27.7l-2.14-1.02c-.34-.16-.65-.4-.89-.71l-1.32-1.68c-.06-.07-.17-.07-.23,0l-1.32,1.68c-.24.3-.54.54-.89.71l-2.14,1.02c-.11.05-.11.21,0,.26l2.01.95v28.24c0,.14.16.21.26.11l4.77-4.77s.04-.07.04-.11v-23.54l1.84-.87c.11-.05.11-.21,0-.26h0Z"/>
        <path class="cls-1" d="M118.42,24.24l-4.85,10.27,4.85,6.26,4.86-6.26-4.86-10.27Z"/>
        <path class="cls-1" d="M123.28,34.52l-4.86,6.26,4.86,6.26,7.98-6.26-7.98-6.26Z"/>
        <path class="cls-1" d="M118.42,40.77l-4.85,6.26,4.85,10.27,4.86-10.27-4.86-6.26Z"/>
        <path class="cls-1" d="M113.57,34.52l-7.98,6.26,7.98,6.26,4.85-6.26-4.85-6.26Z"/>
      </g>
    </g>
  </g>
</svg>