<svg width="143" height="82" viewBox="0 0 143 82" fill="none" xmlns="http://www.w3.org/2000/svg">
<g clip-path="url(#clip0_130_420)">
<path d="M26.3059 33.2509H29.6105C30.1681 33.2509 30.5863 33.4231 30.8651 33.7757C31.1439 34.1283 31.2833 34.4973 31.2833 34.8827C31.2833 35.2927 31.1439 35.6699 30.8651 36.0061C30.5863 36.3423 30.1681 36.5145 29.6105 36.5145H26.3059V41.0901C26.3059 41.7215 26.2239 42.2135 26.0517 42.5579C25.8795 42.9105 25.6663 43.1565 25.3957 43.3041C25.1087 43.4763 24.7889 43.5747 24.4527 43.5911C24.1165 43.6157 23.7639 43.6239 23.4031 43.6239H21.5909C21.4679 43.6239 21.3777 43.5911 21.3203 43.5337C21.2629 43.4763 21.2301 43.3861 21.2301 43.2631V29.9053C21.2301 29.2985 21.0661 28.8475 20.7381 28.5441C20.4101 28.2407 20.0657 27.9947 19.7049 27.7979C19.3195 27.6257 18.9669 27.4617 18.6553 27.3059C18.3437 27.1501 18.1797 26.9041 18.1797 26.5597C18.1797 26.2891 18.2863 26.1333 18.5077 26.0677C18.7209 26.0103 18.9997 25.9775 19.3441 25.9775H25.9533C26.0517 25.9775 26.1337 26.0103 26.2075 26.0677C26.2813 26.1251 26.3141 26.2153 26.3141 26.3383V33.2345L26.3059 33.2509Z" fill="#333333"/>
<path d="M56.4162 41.0901C56.4162 41.7215 56.3342 42.2135 56.162 42.5579C55.9898 42.9105 55.7766 43.1565 55.506 43.3041C55.219 43.4763 54.8992 43.5747 54.563 43.5911C54.2268 43.6157 53.8742 43.6239 53.5134 43.6239H51.7012C51.5782 43.6239 51.488 43.5911 51.4306 43.5337C51.3732 43.4763 51.3404 43.3861 51.3404 43.2631V29.9053C51.3404 29.2985 51.1764 28.8475 50.8484 28.5441C50.5204 28.2407 50.176 27.9947 49.8152 27.7979C49.4298 27.6257 49.0772 27.4617 48.7656 27.3059C48.454 27.1501 48.29 26.9041 48.29 26.5597C48.29 26.2891 48.3966 26.1333 48.618 26.0677C48.8394 26.0021 49.11 25.9775 49.4544 25.9775H56.0636C56.162 25.9775 56.244 26.0103 56.3178 26.0677C56.3916 26.1251 56.4244 26.2153 56.4244 26.3383V41.0737L56.4162 41.0901Z" fill="#333333"/>
<path d="M13.3501 36.2357C14.2275 35.2681 15.0311 34.2759 15.7281 33.2509C16.4661 32.1603 17.0401 31.1845 17.4501 30.3153C17.5977 29.9791 17.5649 29.6019 17.3599 29.1919C17.1549 28.7819 16.7449 28.5769 16.1463 28.5769H2.35392C2.06692 28.5769 1.85372 28.6343 1.73892 28.7409C1.61592 28.8475 1.55852 29.0115 1.55852 29.2329C1.55852 29.4543 1.68972 29.7085 1.96032 29.9955C2.22272 30.2825 2.55072 30.5613 2.94432 30.8319C3.30512 31.0943 3.70692 31.3239 4.14152 31.5043C4.57612 31.6847 4.96152 31.7749 5.30592 31.7749H10.5703C10.2833 32.4801 9.74212 33.3903 8.95492 34.5137C8.16772 35.6371 7.33952 36.6703 6.47032 37.6215C5.83892 38.3267 5.24852 38.9417 4.69092 39.4747C4.13332 40.0077 3.61672 40.4915 3.13292 40.9261C2.62452 41.3607 2.15712 41.7625 1.73892 42.1233C1.32072 42.4841 0.918919 42.8121 0.558119 43.1073C0.025119 43.5419 -0.163482 43.9519 -0.0240818 44.3209C0.123518 44.6981 0.664718 44.7145 1.60772 44.3783C3.25592 43.7961 4.89592 42.9843 6.52772 41.9429C8.15132 40.9097 9.76672 39.6715 11.3821 38.2283C12.3661 37.2935 13.0549 36.5883 13.3747 36.2521L13.3501 36.2357Z" fill="#333333"/>
<path d="M15.1627 35.8832L15.8761 37.3838C16.0401 37.7282 16.2779 38.0316 16.5813 38.2694L17.7703 39.196C17.8441 39.2534 17.8441 39.3682 17.7703 39.4256L16.5813 40.3522C16.2779 40.59 16.0401 40.8934 15.8761 41.2378L15.1627 42.7384C15.1135 42.8532 14.9495 42.8532 14.9003 42.7384L14.1869 41.2378C14.0229 40.8934 13.7851 40.59 13.4817 40.3522L12.2927 39.4256C12.2189 39.3682 12.2189 39.2534 12.2927 39.196L13.4817 38.2694C13.7851 38.0316 14.0229 37.7282 14.1869 37.3838L14.9003 35.8832C14.9495 35.7684 15.1135 35.7684 15.1627 35.8832Z" fill="#333333"/>
<path d="M43.69 36.2357C44.5674 35.2681 45.371 34.2759 46.068 33.2509C46.806 32.1603 47.38 31.1845 47.79 30.3153C47.9376 29.9791 47.9048 29.6019 47.6998 29.1919C47.4948 28.7819 47.0848 28.5769 46.4862 28.5769H32.6938C32.4068 28.5769 32.1936 28.6343 32.0788 28.7409C31.9558 28.8475 31.8984 29.0115 31.8984 29.2329C31.8984 29.4543 32.0296 29.7085 32.3002 29.9955C32.5626 30.2825 32.8906 30.5613 33.2842 30.8319C33.645 31.0943 34.0468 31.3239 34.4814 31.5043C34.916 31.6847 35.3014 31.7749 35.6458 31.7749H40.9102C40.6232 32.4801 40.082 33.3903 39.2948 34.5137C38.5076 35.6371 37.6794 36.6703 36.8102 37.6215C36.1788 38.3267 35.5884 38.9417 35.0308 39.4747C34.4732 40.0077 33.9566 40.4915 33.4728 40.9261C32.9644 41.3607 32.497 41.7625 32.0788 42.1233C31.6606 42.4841 31.2588 42.8121 30.898 43.1073C30.365 43.5419 30.1764 43.9519 30.3158 44.3209C30.4634 44.6981 31.0046 44.7145 31.9476 44.3783C33.5958 43.7961 35.2358 42.9843 36.8676 41.9429C38.4912 40.9097 40.1066 39.6715 41.722 38.2283C42.706 37.2935 43.3948 36.5883 43.7146 36.2521L43.69 36.2357Z" fill="#333333"/>
<path d="M45.5025 35.8832L46.2159 37.3838C46.3799 37.7282 46.6177 38.0316 46.9211 38.2694L48.1101 39.196C48.1839 39.2534 48.1839 39.3682 48.1101 39.4256L46.9211 40.3522C46.6177 40.59 46.3799 40.8934 46.2159 41.2378L45.5025 42.7384C45.4533 42.8532 45.2893 42.8532 45.2401 42.7384L44.5267 41.2378C44.3627 40.8934 44.1249 40.59 43.8215 40.3522L42.6325 39.4256C42.5587 39.3682 42.5587 39.2534 42.6325 39.196L43.8215 38.2694C44.1249 38.0316 44.3627 37.7282 44.5267 37.3838L45.2401 35.8832C45.2893 35.7684 45.4533 35.7684 45.5025 35.8832Z" fill="#333333"/>
<path d="M90.176 35.6044L91.0206 37.3838C91.1846 37.7282 91.4224 38.0316 91.7258 38.2694L93.0542 39.3108L91.7258 40.3522C91.4224 40.59 91.1846 40.8934 91.0206 41.2378L90.176 43.0172L89.3314 41.2378C89.1674 40.8934 88.9296 40.59 88.6262 40.3522L87.2979 39.3108L88.6262 38.2694C88.9296 38.0316 89.1674 37.7282 89.3314 37.3838L90.176 35.6044Z" fill="#333333"/>
<path d="M74.2022 38.95L75.219 41.0902C75.383 41.4346 75.6208 41.738 75.9242 41.9758L77.6052 43.296C77.679 43.3534 77.679 43.4682 77.6052 43.5256L75.9242 44.8458C75.6208 45.0836 75.383 45.387 75.219 45.7314L74.2022 47.8716C74.153 47.9864 73.989 47.9864 73.9398 47.8716L72.923 45.7314C72.759 45.387 72.5212 45.0836 72.2178 44.8458L70.5368 43.5256C70.463 43.4682 70.463 43.3534 70.5368 43.296L72.2178 41.9758C72.5212 41.738 72.759 41.4346 72.923 41.0902L73.9398 38.95C73.989 38.8352 74.153 38.8352 74.2022 38.95Z" fill="#333333"/>
<path d="M5.70767 46.4612C5.96187 46.6334 6.24887 46.8138 6.56047 47.0024C6.75727 47.109 6.94587 47.2238 7.11807 47.3468C7.57727 47.6666 7.83147 48.2078 7.83147 48.7654V57.1704C7.83147 57.4902 8.09387 57.7526 8.41367 57.7526H25.2319C25.5025 57.7526 25.7485 57.564 25.7977 57.3016C25.8469 57.072 25.8715 56.8096 25.8715 56.5144V45.0836C25.8715 44.9606 25.8387 44.8704 25.7649 44.813C25.6911 44.7556 25.6091 44.7228 25.5107 44.7228H19.1557C18.9589 44.7228 18.7703 44.7556 18.5735 44.813C18.3767 44.8704 18.2865 45.0262 18.2865 45.264C18.2865 45.5346 18.4095 45.7478 18.6637 45.92C18.9179 46.0922 19.2049 46.2726 19.5165 46.4612C19.7297 46.576 19.9347 46.7072 20.1233 46.8384C20.5497 47.1418 20.7875 47.642 20.7875 48.1668C20.7875 48.4866 20.5251 48.749 20.2053 48.749H13.4895C13.1697 48.749 12.9073 48.4866 12.9073 48.1668V45.6248C12.9073 45.5018 12.8745 45.4116 12.8007 45.3542C12.7269 45.2968 12.6449 45.264 12.5465 45.264H6.19147C5.99467 45.264 5.80607 45.2968 5.60927 45.3542C5.41247 45.4116 5.32227 45.5674 5.32227 45.8052C5.32227 46.0758 5.45347 46.289 5.69947 46.4612H5.70767ZM13.4977 51.8732H20.2135C20.5333 51.8732 20.7957 52.1356 20.7957 52.4554V54.2758C20.7957 54.5956 20.5333 54.858 20.2135 54.858H13.4977C13.1779 54.858 12.9155 54.5956 12.9155 54.2758V52.4554C12.9155 52.1356 13.1779 51.8732 13.4977 51.8732Z" fill="#333333"/>
<path d="M35.679 46.4612C35.9332 46.6334 36.2202 46.8138 36.5318 47.0024C36.7368 47.109 36.9254 47.232 37.114 47.3632C37.5568 47.6748 37.8028 48.1996 37.8028 48.7408V57.2278C37.8028 57.5148 38.0406 57.7526 38.3276 57.7526H55.3508C55.5968 57.7526 55.8182 57.5804 55.8674 57.3426C55.9166 57.1048 55.9494 56.826 55.9494 56.5144V45.0836C55.9494 44.9606 55.9166 44.8704 55.8428 44.813C55.769 44.7556 55.687 44.7228 55.5886 44.7228H49.2336C49.0368 44.7228 48.8482 44.7556 48.6514 44.813C48.4546 44.8704 48.3644 45.0262 48.3644 45.264C48.3644 45.5346 48.4874 45.7478 48.7416 45.92C48.9958 46.0922 49.2828 46.2726 49.5944 46.4612C49.8158 46.5842 50.029 46.7154 50.2258 46.8548C50.6358 47.15 50.8654 47.6338 50.8654 48.1422V48.2242C50.8654 48.5112 50.6276 48.749 50.3406 48.749H43.4116C43.1246 48.749 42.8868 48.5112 42.8868 48.2242V45.633C42.8868 45.51 42.854 45.4198 42.7802 45.3624C42.7064 45.305 42.6244 45.2722 42.526 45.2722H36.171C35.9742 45.2722 35.7856 45.305 35.5888 45.3624C35.392 45.4198 35.3018 45.5756 35.3018 45.8134C35.3018 46.084 35.433 46.2972 35.679 46.4694V46.4612ZM43.4116 51.8732H50.3406C50.6276 51.8732 50.8654 52.111 50.8654 52.398V54.3168C50.8654 54.6038 50.6276 54.8416 50.3406 54.8416H43.4116C43.1246 54.8416 42.8868 54.6038 42.8868 54.3168V52.398C42.8868 52.111 43.1246 51.8732 43.4116 51.8732Z" fill="#333333"/>
<path d="M71.8 38.0972C72.456 36.695 72.989 35.3584 73.399 34.0874C73.809 32.8164 74.1042 31.6766 74.2682 30.6598C74.3666 30.3482 74.3338 30.0038 74.178 29.6266C74.0222 29.2494 73.7106 29.0608 73.2514 29.0608H66.2814C65.9944 29.0608 65.7566 29.11 65.5762 29.2084C65.3958 29.3068 65.3056 29.4626 65.3056 29.684C65.3056 29.9546 65.4532 30.1678 65.7402 30.34C66.0272 30.5122 66.3306 30.6926 66.6504 30.8812C66.9866 31.078 67.29 31.324 67.536 31.6274C67.7902 31.9308 67.8804 32.3326 67.8066 32.841C67.6098 34.0054 67.2982 35.3666 66.8636 36.941C66.429 38.5154 65.8468 39.9914 65.1252 41.369C64.256 43.0418 63.3294 44.608 62.3454 46.0676C61.3696 47.5354 60.4758 48.749 59.6804 49.7166C59.2458 50.2988 59.1802 50.7006 59.5 50.9138C59.8198 51.127 60.32 51.0204 61.0252 50.5858C62.862 49.4952 64.6004 48.0438 66.2322 46.2316C67.8394 44.444 69.2088 42.64 70.365 40.8114C70.5044 40.549 71.8082 38.1054 71.8082 38.1054L71.8 38.0972Z" fill="#333333"/>
<path d="M88.372 27.6996L86.2318 26.6828C85.8874 26.5188 85.584 26.281 85.3462 25.9776L84.026 24.2966C83.9686 24.2228 83.8538 24.2228 83.7964 24.2966L82.4762 25.9776C82.2384 26.281 81.935 26.5188 81.5906 26.6828L79.4504 27.6996C79.3356 27.7488 79.3356 27.9128 79.4504 27.962L81.4594 28.9132V57.154C81.4594 57.2934 81.6234 57.359 81.7218 57.2606L86.4942 52.4882C86.4942 52.4882 86.5352 52.4226 86.5352 52.3816V28.8394L88.372 27.9702C88.4868 27.921 88.4868 27.757 88.372 27.7078V27.6996Z" fill="#333333"/>
<path d="M110.069 24.2393L105.215 34.5139L110.069 40.7705L114.932 34.5139L110.069 24.2393Z" fill="#E8EBEA"/>
<path d="M114.931 34.5138L110.068 40.7704L114.931 47.027L122.91 40.7704L114.931 34.5138Z" fill="#333333"/>
<path d="M110.069 40.7704L105.215 47.027L110.069 57.3016L114.932 47.027L110.069 40.7704Z" fill="#A23541"/>
<path d="M105.214 34.5138L97.2354 40.7704L105.214 47.027L110.068 40.7704L105.214 34.5138Z" fill="#333333"/>
</g>
<defs>
<clipPath id="clip0_130_420">
<rect width="143" height="82" fill="white"/>
</clipPath>
</defs>
</svg>
